<svg width="120" height="69" viewBox="0 0 120 69" fill="none" xmlns="http://www.w3.org/2000/svg">
<path d="M2.41381 41.9854L0.0587853 41.6753V40.4647H13.9391L14.3322 44.606H12.9876L12.2307 41.9005L4.71374 41.7602V49.958L9.87202 49.8731L10.2357 47.533H11.6392V53.7598H10.2357L9.87202 51.3643L4.71374 51.2794V59.957L13.2962 59.7318L14.7254 56.2106L16.07 56.6351L15.1993 61.3965H0V60.1858L2.41014 59.9312V41.9854H2.41381Z" fill="#088178"/>
<path d="M20.3613 40.0956L17.9769 39.8409V38.7963L22.0697 38.3165H22.0991L22.6318 38.6819V59.9828L25.2661 60.1785V61.3891H17.8887V60.1785L20.3576 59.9533V40.0956H20.3613Z" fill="#088178"/>
<path d="M29.098 59.4661C27.9297 57.9712 27.3455 55.9854 27.3455 53.5088C27.3455 51.9142 27.6542 50.4932 28.2714 49.253C28.8886 48.0128 29.7447 47.0495 30.8358 46.3666C31.9307 45.6801 33.1578 45.3368 34.5245 45.3368C36.1888 45.3368 37.4821 45.8167 38.4079 46.7727C39.3338 47.7286 39.8334 49.1091 39.9069 50.914C39.9069 52.0803 39.8518 52.9034 39.7379 53.3943H29.7557C29.7557 55.3654 30.2002 56.9783 31.0893 58.2259C31.9784 59.4735 33.2239 60.1009 34.8331 60.1009C35.6194 60.1009 36.4203 59.9607 37.2433 59.6765C38.0663 59.396 38.7019 59.0564 39.1501 58.6614L39.5983 59.7023C39.0546 60.267 38.2683 60.7395 37.2286 61.1234C36.1925 61.5072 35.1491 61.7028 34.102 61.7028C31.9344 61.7065 30.2664 60.9609 29.098 59.4661ZM37.3829 52.073C37.438 51.678 37.4674 51.2646 37.4674 50.8328C37.449 49.5926 37.1551 48.6071 36.5856 47.8763C36.0162 47.1454 35.1418 46.7763 33.9624 46.7763C31.4016 46.7763 30.0092 48.5407 29.7851 52.073H37.3829Z" fill="#088178"/>
<path d="M42.4603 64.7775C42.4603 63.9322 42.7175 63.1608 43.2319 62.4669C43.7462 61.773 44.3561 61.2267 45.0689 60.8318C44.1908 60.363 43.7499 59.5842 43.7499 58.4917C43.7499 57.7977 43.9446 57.1444 44.3378 56.5354C44.7309 55.9264 45.2342 55.4613 45.8514 55.1402C44.9734 54.7268 44.2863 54.1399 43.7903 53.3796C43.2943 52.6192 43.0482 51.7297 43.0482 50.7184C43.0482 49.6295 43.3458 48.6772 43.9446 47.8578C44.5435 47.0421 45.3224 46.4146 46.285 45.9828C47.2476 45.5509 48.2542 45.3332 49.3013 45.3332C51.0391 45.3332 52.4316 45.717 53.4787 46.4884C53.7579 46.2264 54.1951 45.968 54.7829 45.7133C55.3708 45.4586 56.0027 45.3332 56.675 45.3332H57.6009V47.4186H54.4045C54.9483 48.1715 55.2165 49.0795 55.2165 50.1499C55.2165 51.2572 54.9372 52.2391 54.3751 53.0954C53.813 53.9517 53.0598 54.6124 52.1193 55.0811C51.1751 55.5499 50.1317 55.7861 48.9927 55.7861C48.2248 55.7861 47.5231 55.7012 46.8912 55.5314C46.5532 55.7935 46.2887 56.0999 46.0903 56.4468C45.8955 56.7938 45.7963 57.1481 45.7963 57.5025C45.7963 58.2148 46.0241 58.7131 46.4834 58.9936C46.9426 59.2741 47.7399 59.4181 48.8825 59.4181H52.1928C53.9306 59.4181 55.2165 59.7577 56.0505 60.4331C56.8808 61.1086 57.2996 62.0572 57.2996 63.2789C57.2996 64.2939 56.9359 65.2352 56.2048 66.1099C55.4736 66.9847 54.4817 67.6823 53.2178 68.2101C51.954 68.7342 50.5762 69 49.0809 69C44.6647 69.0037 42.4603 67.5937 42.4603 64.7775ZM52.1046 67.1287C53.0194 66.8371 53.7579 66.4163 54.32 65.8626C54.8821 65.309 55.1613 64.6667 55.1613 63.9322C55.1613 63.349 55.0732 62.8803 54.8931 62.5222C54.7168 62.1642 54.3714 61.8874 53.8571 61.6918C53.3427 61.4961 52.6006 61.3965 51.627 61.3965H48.1514C47.2549 61.3965 46.5715 61.3411 46.1049 61.2267C45.1901 62.1089 44.7309 63.1423 44.7309 64.3272C44.7309 65.3976 45.0689 66.2059 45.7412 66.7485C46.4136 67.2947 47.5745 67.5642 49.2168 67.5642C50.2272 67.5679 51.1898 67.4202 52.1046 67.1287ZM52.8357 50.4637C52.8357 47.9649 51.6013 46.7173 49.1323 46.7173C46.6634 46.7173 45.4289 47.9464 45.4289 50.4083C45.4289 51.5931 45.7486 52.5528 46.3842 53.2947C47.0198 54.0366 47.9824 54.4094 49.2719 54.4094C51.649 54.4094 52.8357 53.0954 52.8357 50.4637Z" fill="#088178"/>
<path d="M62.0317 53.3242C63.8246 52.5085 66.0584 52.0693 68.7331 52.0139V51.1391C68.7331 50.1795 68.6339 49.4265 68.4392 48.8728C68.2444 48.3192 67.9028 47.9132 67.4141 47.6622C66.9291 47.4075 66.2458 47.282 65.3677 47.282C64.4125 47.282 63.5491 47.426 62.7739 47.7176C61.9986 48.0091 61.2455 48.3598 60.518 48.7732L59.9008 47.533C60.1065 47.3448 60.5364 47.0827 61.1904 46.7431C61.8443 46.4035 62.5938 46.1046 63.4352 45.8425C64.2765 45.5804 65.0885 45.4476 65.8747 45.4476C67.1459 45.4476 68.1489 45.6247 68.8911 45.9828C69.6295 46.3408 70.1623 46.9129 70.4892 47.7028C70.8162 48.4927 70.9779 49.552 70.9779 50.8845V60.1821H72.7157V61.223C71.687 61.5035 70.8162 61.6438 70.1072 61.6438C69.6589 61.6438 69.3503 61.5737 69.1813 61.4334C69.0123 61.2931 68.9278 60.9683 68.9278 60.4627V59.4218C68.2555 60.0234 67.5207 60.5549 66.7271 61.0126C65.9335 61.474 65.0297 61.7028 64.0193 61.7028C62.6747 61.7028 61.5541 61.3264 60.6687 60.5771C59.7796 59.8278 59.335 58.7279 59.335 57.281C59.3424 55.4613 60.2388 54.1436 62.0317 53.3242ZM66.7454 59.5362C67.4729 59.1966 68.1379 58.7943 68.7368 58.3256V53.339C66.4736 53.3574 64.7578 53.697 63.5895 54.354C62.4212 55.011 61.837 55.8932 61.837 57.0042C61.837 58.0746 62.1089 58.8497 62.6489 59.3295C63.1927 59.8093 63.9312 60.0493 64.8644 60.0493C65.3897 60.0456 66.0143 59.8758 66.7454 59.5362Z" fill="#088178"/>
<path d="M76.5587 47.6216L74.3984 47.1418V45.872L77.9585 45.4217H78.043L78.5757 45.872V47.1122L78.5463 47.8172C79.237 47.2156 80.1555 46.6619 81.2945 46.1562C82.4334 45.6506 83.4915 45.3959 84.4614 45.3959C85.6592 45.3959 86.5777 45.6247 87.2243 46.0861C87.8709 46.5475 88.3192 47.2525 88.569 48.1974C88.8225 49.146 88.9474 50.4194 88.9474 52.0139V59.9865L91.0489 60.1821V61.3928H84.7958V60.1821L86.6732 59.9865V51.9881C86.6732 50.8032 86.5924 49.8768 86.4344 49.1977C86.2764 48.5222 85.9678 48.0091 85.5085 47.6622C85.0493 47.3152 84.3806 47.1418 83.5025 47.1418C82.753 47.1418 81.9448 47.33 81.0777 47.7065C80.207 48.083 79.4538 48.5222 78.8182 49.0316V59.9644L80.8646 60.1895V61.4002H74.6666V60.1895L76.544 59.9644V47.6216H76.5587Z" fill="#088178"/>
<path d="M93.6795 49.4929C94.2674 48.2269 95.1454 47.2156 96.3174 46.4626C97.4858 45.7096 98.9113 45.3368 100.594 45.3368C101.325 45.3368 102.034 45.4254 102.725 45.6063C103.416 45.7835 104.014 45.9754 104.518 46.1821L104.408 50.2127H103.004L102.416 47.5072C102.302 46.9424 101.501 46.6619 100.006 46.6619C98.5476 46.6619 97.3829 47.2266 96.5158 48.3524C95.6451 49.4782 95.2116 51.021 95.2116 52.9736C95.2116 55.3026 95.6782 57.0669 96.615 58.2702C97.5482 59.4735 98.7643 60.0714 100.26 60.0714C101.046 60.0714 101.806 59.9385 102.545 59.6765C103.283 59.4144 103.897 59.1117 104.382 58.7759L104.83 59.706C104.286 60.2523 103.541 60.721 102.585 61.116C101.63 61.5109 100.686 61.7065 99.7526 61.7065C98.2757 61.7065 97.0118 61.3559 95.9684 60.6509C94.9213 59.9459 94.1314 58.9899 93.5987 57.7756C93.066 56.5612 92.7977 55.1993 92.7977 53.6749C92.7977 52.1542 93.0917 50.7626 93.6795 49.4929Z" fill="#088178"/>
<path d="M109.187 59.4661C108.019 57.9712 107.435 55.9854 107.435 53.5088C107.435 51.9142 107.744 50.4932 108.361 49.253C108.978 48.0128 109.834 47.0495 110.929 46.3666C112.024 45.6801 113.251 45.3368 114.618 45.3368C116.282 45.3368 117.575 45.8167 118.501 46.7727C119.427 47.7286 119.927 49.1091 120 50.914C120 52.0803 119.945 52.9034 119.831 53.3943H109.849C109.849 55.3654 110.293 56.9783 111.179 58.2259C112.068 59.4735 113.313 60.1009 114.923 60.1009C115.709 60.1009 116.51 59.9607 117.333 59.6765C118.156 59.396 118.791 59.0564 119.239 58.6614L119.688 59.7023C119.144 60.267 118.354 60.7395 117.318 61.1234C116.282 61.5072 115.239 61.7028 114.191 61.7028C112.024 61.7065 110.356 60.9609 109.187 59.4661ZM117.476 52.073C117.531 51.678 117.56 51.2646 117.56 50.8328C117.542 49.5926 117.248 48.6071 116.679 47.8763C116.109 47.1454 115.235 46.7763 114.055 46.7763C111.495 46.7763 110.102 48.5407 109.878 52.073H117.476Z" fill="#088178"/>
<path d="M50.5689 19.9352C59.4122 28.7235 72.3667 30.7721 83.1315 26.1251C82.8045 26.5052 82.4702 26.8817 82.1138 27.2434C74.0053 35.4781 60.7899 35.5483 52.5932 27.4022C49.0993 23.9289 47.0896 19.5255 46.5532 14.9782C47.6884 16.7351 49.0258 18.3998 50.5689 19.9352Z" fill="#088178"/>
<path d="M69.4311 19.9352C60.5878 28.7235 47.6333 30.7721 36.8685 26.1251C37.1955 26.5052 37.5299 26.8817 37.8862 27.2434C45.9947 35.4781 59.2101 35.5483 67.4068 27.4022C70.9007 23.9289 72.9104 19.5255 73.4468 14.9782C72.3116 16.7351 70.9742 18.3998 69.4311 19.9352Z" fill="#088178"/>
<path d="M60 0C57.7185 2.97866 56.3627 6.7029 56.3627 10.7483C56.3627 14.7936 57.7221 18.5216 60 21.5002C62.2816 18.5216 63.6373 14.7973 63.6373 10.7483C63.6373 6.7029 62.2816 2.97496 60 0Z" fill="#088178"/>
<path d="M36.9163 15.9341C37.1845 18.3665 38.2242 20.7288 40.0429 22.6297C41.8615 24.5269 44.1761 25.66 46.5826 26.0217C46.3144 23.5893 45.2746 21.2271 43.456 19.3262C41.6374 17.429 39.3228 16.2959 36.9163 15.9341Z" fill="#088178"/>
<path d="M83.0837 15.9341C82.8155 18.3665 81.7758 20.7288 79.9571 22.6297C78.1385 24.5269 75.8239 25.66 73.4174 26.0217C73.6856 23.5893 74.7254 21.2271 76.544 19.3262C78.3626 17.429 80.6772 16.2959 83.0837 15.9341Z" fill="#088178"/>
<path d="M49.6393 9.29031C49.3454 11.1912 49.6467 13.1991 50.6387 15.0151C51.6306 16.8311 53.1517 18.1672 54.9042 18.9423C55.1981 17.0415 54.8968 15.0335 53.9049 13.2176C52.9129 11.4016 51.3918 10.0654 49.6393 9.29031Z" fill="#088178"/>
<path d="M70.3607 9.29031C70.6546 11.1912 70.3533 13.1991 69.3613 15.0151C68.3694 16.8311 66.8483 18.1672 65.0958 18.9423C64.8019 17.0415 65.1032 15.0335 66.0952 13.2176C67.0871 11.4016 68.6082 10.0654 70.3607 9.29031Z" fill="#088178"/>
</svg>
