<svg width="56" height="56" viewBox="0 0 56 56" fill="none" xmlns="http://www.w3.org/2000/svg">
<circle cx="28" cy="28" r="28" fill="#088178"/>
<path d="M18.7003 27.9352C27.5436 36.7235 40.4981 38.7721 51.2629 34.1251C50.936 34.5052 50.6016 34.8817 50.2452 35.2434C42.1367 43.4781 28.9214 43.5483 20.7247 35.4022C17.2307 31.9289 15.221 27.5255 14.6846 22.9782C15.8199 24.7351 17.1572 26.3998 18.7003 27.9352Z" fill="white"/>
<path d="M37.5626 27.9352C28.7193 36.7235 15.7648 38.7721 5 34.1251C5.32699 34.5052 5.66132 34.8817 6.0177 35.2434C14.1262 43.4781 27.3416 43.5483 35.5382 35.4022C39.0322 31.9289 41.0419 27.5255 41.5783 22.9782C40.443 24.7351 39.1057 26.3998 37.5626 27.9352Z" fill="white"/>
<path d="M28.1315 8C25.8499 10.9787 24.4942 14.7029 24.4942 18.7483C24.4942 22.7936 25.8536 26.5216 28.1315 29.5002C30.413 26.5216 31.7687 22.7973 31.7687 18.7483C31.7687 14.7029 30.413 10.975 28.1315 8Z" fill="white"/>
<path d="M5.04776 23.9342C5.31596 26.3665 6.3557 28.7288 8.17433 30.6297C9.99295 32.5269 12.3076 33.66 14.714 34.0217C14.4458 31.5893 13.4061 29.2271 11.5875 27.3262C9.76884 25.429 7.45423 24.2959 5.04776 23.9342Z" fill="white"/>
<path d="M51.2152 23.9342C50.947 26.3665 49.9072 28.7288 48.0886 30.6297C46.27 32.5269 43.9554 33.66 41.5489 34.0217C41.8171 31.5893 42.8568 29.2271 44.6755 27.3262C46.4941 25.429 48.8087 24.2959 51.2152 23.9342Z" fill="white"/>
<path d="M17.7708 17.2903C17.4769 19.1912 17.7782 21.1991 18.7701 23.0151C19.7621 24.8311 21.2832 26.1672 23.0356 26.9423C23.3296 25.0415 23.0283 23.0335 22.0363 21.2176C21.0443 19.4016 19.5233 18.0654 17.7708 17.2903Z" fill="white"/>
<path d="M38.4921 17.2903C38.7861 19.1912 38.4848 21.1991 37.4928 23.0151C36.5008 24.8311 34.9798 26.1672 33.2273 26.9423C32.9334 25.0415 33.2347 23.0335 34.2266 21.2176C35.2186 19.4016 36.7396 18.0654 38.4921 17.2903Z" fill="white"/>
</svg>
