<?xml version="1.0" encoding="utf-8"?>
<!-- Generator: Adobe Illustrator 27.9.0, SVG Export Plug-In . SVG Version: 6.00 Build 0)  -->
<svg version="1.1" id="Layer_1" xmlns="http://www.w3.org/2000/svg" xmlns:xlink="http://www.w3.org/1999/xlink" x="0px" y="0px"
	 viewBox="0 0 600 300" style="enable-background:new 0 0 600 300;" xml:space="preserve">
<g>
	<g>
		<g>
			<path d="M143.26,170.2l-6.41-0.84v-3.28h37.78l1.07,11.22h-3.66l-2.06-7.33l-20.46-0.38v22.21l14.04-0.23l0.99-6.34h3.82v16.87
				h-3.82l-0.99-6.49l-14.04-0.23v23.51l23.36-0.61l3.89-9.54l3.66,1.15l-2.37,12.9h-41.37v-3.28l6.56-0.69V170.2z"/>
			<path d="M192.11,165.08l-6.49-0.69v-2.83l11.14-1.3h0.08l1.45,0.99v57.71l7.17,0.53v3.28h-20.08v-3.28l6.72-0.61V165.08z"/>
			<path d="M215.89,217.56c-3.18-4.05-4.77-9.43-4.77-16.14c0-4.32,0.84-8.17,2.52-11.53c1.68-3.36,4.01-5.97,6.98-7.82
				c2.98-1.86,6.32-2.79,10.04-2.79c4.53,0,8.05,1.3,10.57,3.89c2.52,2.59,3.88,6.33,4.08,11.22c0,3.16-0.15,5.39-0.46,6.72h-27.17
				c0,5.34,1.21,9.71,3.63,13.09c2.42,3.38,5.81,5.08,10.19,5.08c2.14,0,4.32-0.38,6.56-1.15c2.24-0.76,3.97-1.68,5.19-2.75
				l1.22,2.82c-1.48,1.53-3.62,2.81-6.45,3.85c-2.82,1.04-5.66,1.57-8.51,1.57C223.61,223.63,219.07,221.61,215.89,217.56z
				 M238.44,197.53c0.15-1.07,0.23-2.19,0.23-3.36c-0.05-3.36-0.85-6.03-2.4-8.01c-1.55-1.98-3.93-2.98-7.14-2.98
				c-6.97,0-10.76,4.78-11.37,14.35H238.44z"/>
			<path d="M252.26,231.95c0-2.29,0.7-4.38,2.1-6.26c1.4-1.88,3.06-3.36,5-4.43c-2.39-1.27-3.59-3.38-3.59-6.34
				c0-1.88,0.53-3.65,1.6-5.3c1.07-1.65,2.44-2.91,4.12-3.78c-2.39-1.12-4.26-2.71-5.61-4.77c-1.35-2.06-2.02-4.47-2.02-7.21
				c0-2.95,0.81-5.53,2.44-7.75c1.63-2.21,3.75-3.91,6.37-5.08c2.62-1.17,5.36-1.76,8.21-1.76c4.73,0,8.52,1.04,11.37,3.13
				c0.76-0.71,1.95-1.41,3.55-2.1c1.6-0.69,3.32-1.03,5.15-1.03h2.52v5.65h-8.7c1.48,2.04,2.21,4.5,2.21,7.4
				c0,3-0.76,5.66-2.29,7.98c-1.53,2.32-3.58,4.11-6.14,5.38c-2.57,1.27-5.41,1.91-8.51,1.91c-2.09,0-4-0.23-5.72-0.69
				c-0.92,0.71-1.64,1.54-2.18,2.48c-0.53,0.94-0.8,1.9-0.8,2.86c0,1.93,0.62,3.28,1.87,4.04c1.25,0.76,3.42,1.15,6.53,1.15h9.01
				c4.73,0,8.23,0.92,10.5,2.75c2.26,1.83,3.4,4.4,3.4,7.71c0,2.75-0.99,5.3-2.98,7.67s-4.69,4.26-8.13,5.69
				c-3.44,1.42-7.19,2.14-11.26,2.14C258.26,243.4,252.26,239.58,252.26,231.95z M278.51,238.32c2.49-0.79,4.5-1.93,6.03-3.43
				c1.53-1.5,2.29-3.24,2.29-5.23c0-1.58-0.24-2.85-0.73-3.82c-0.48-0.97-1.42-1.72-2.82-2.25c-1.4-0.53-3.42-0.8-6.07-0.8h-9.46
				c-2.44,0-4.3-0.15-5.57-0.46c-2.49,2.39-3.74,5.19-3.74,8.4c0,2.9,0.92,5.09,2.75,6.56c1.83,1.48,4.99,2.21,9.46,2.21
				C273.4,239.51,276.02,239.11,278.51,238.32z M280.5,193.17c0-6.77-3.36-10.15-10.08-10.15s-10.08,3.33-10.08,10
				c0,3.21,0.87,5.81,2.6,7.82c1.73,2.01,4.35,3.02,7.86,3.02C277.27,203.86,280.5,200.3,280.5,193.17z"/>
			<path d="M305.53,200.92c4.88-2.21,10.96-3.4,18.24-3.55v-2.37c0-2.6-0.27-4.64-0.8-6.14s-1.46-2.6-2.79-3.28
				c-1.32-0.69-3.18-1.03-5.57-1.03c-2.6,0-4.95,0.39-7.06,1.18c-2.11,0.79-4.16,1.74-6.14,2.86l-1.68-3.36
				c0.56-0.51,1.73-1.22,3.51-2.14c1.78-0.92,3.82-1.73,6.11-2.44c2.29-0.71,4.5-1.07,6.64-1.07c3.46,0,6.19,0.48,8.21,1.45
				c2.01,0.97,3.46,2.52,4.35,4.66c0.89,2.14,1.33,5.01,1.33,8.62v25.19h4.73v2.82c-2.8,0.76-5.17,1.14-7.1,1.14
				c-1.22,0-2.06-0.19-2.52-0.57s-0.69-1.26-0.69-2.63v-2.82c-1.83,1.63-3.83,3.07-5.99,4.31c-2.16,1.25-4.62,1.87-7.37,1.87
				c-3.66,0-6.71-1.02-9.12-3.05c-2.42-2.03-3.63-5.01-3.63-8.93C298.21,206.71,300.65,203.14,305.53,200.92z M318.36,217.75
				c1.98-0.92,3.79-2.01,5.42-3.28v-13.51c-6.16,0.05-10.83,0.97-14.01,2.75c-3.18,1.78-4.77,4.17-4.77,7.18c0,2.9,0.74,5,2.21,6.3
				c1.48,1.3,3.49,1.95,6.03,1.95C314.67,219.13,316.37,218.67,318.36,217.75z"/>
			<path d="M345.07,185.47l-5.88-1.3v-3.44l9.69-1.22h0.23l1.45,1.22v3.36l-0.08,1.91c1.88-1.63,4.38-3.13,7.48-4.5
				c3.1-1.37,5.98-2.06,8.62-2.06c3.26,0,5.76,0.62,7.52,1.87s2.98,3.16,3.66,5.72c0.69,2.57,1.03,6.02,1.03,10.34v21.6l5.72,0.53
				v3.28h-17.02v-3.28l5.11-0.53V197.3c0-3.21-0.22-5.72-0.65-7.56c-0.43-1.83-1.27-3.22-2.52-4.16c-1.25-0.94-3.07-1.41-5.46-1.41
				c-2.04,0-4.24,0.51-6.6,1.53c-2.37,1.02-4.42,2.21-6.15,3.59v29.62l5.57,0.61v3.28h-16.87v-3.28l5.11-0.61V185.47z"/>
			<path d="M391.67,190.54c1.6-3.43,3.99-6.17,7.18-8.21c3.18-2.04,7.06-3.05,11.64-3.05c1.99,0,3.92,0.24,5.8,0.73
				c1.88,0.48,3.51,1,4.88,1.56l-0.3,10.92h-3.82l-1.6-7.33c-0.31-1.53-2.49-2.29-6.56-2.29c-3.97,0-7.14,1.53-9.5,4.58
				c-2.37,3.05-3.55,7.23-3.55,12.52c0,6.31,1.27,11.09,3.82,14.35c2.54,3.26,5.85,4.88,9.92,4.88c2.14,0,4.21-0.36,6.22-1.07
				c2.01-0.71,3.68-1.53,5-2.44l1.22,2.52c-1.48,1.48-3.51,2.75-6.11,3.82c-2.6,1.07-5.17,1.6-7.71,1.6c-4.02,0-7.46-0.95-10.3-2.86
				c-2.85-1.91-5-4.5-6.45-7.79s-2.18-6.98-2.18-11.11C389.27,197.75,390.07,193.98,391.67,190.54z"/>
			<path d="M433.88,217.56c-3.18-4.05-4.77-9.43-4.77-16.14c0-4.32,0.84-8.17,2.52-11.53c1.68-3.36,4.01-5.97,6.99-7.82
				c2.98-1.86,6.32-2.79,10.04-2.79c4.53,0,8.05,1.3,10.57,3.89c2.52,2.59,3.88,6.33,4.08,11.22c0,3.16-0.15,5.39-0.46,6.72h-27.17
				c0,5.34,1.21,9.71,3.62,13.09c2.42,3.38,5.81,5.08,10.19,5.08c2.14,0,4.32-0.38,6.56-1.15c2.24-0.76,3.97-1.68,5.19-2.75
				l1.22,2.82c-1.48,1.53-3.63,2.81-6.45,3.85c-2.82,1.04-5.66,1.57-8.51,1.57C441.6,223.63,437.06,221.61,433.88,217.56z
				 M456.44,197.53c0.15-1.07,0.23-2.19,0.23-3.36c-0.05-3.36-0.85-6.03-2.4-8.01s-3.93-2.98-7.14-2.98
				c-6.97,0-10.76,4.78-11.37,14.35H456.44z"/>
		</g>
		<g>
			<g>
				<path d="M274.33,110.46c24.07,23.81,59.33,29.36,88.63,16.77c-0.89,1.03-1.8,2.05-2.77,3.03c-22.07,22.31-58.04,22.5-80.35,0.43
					c-9.51-9.41-14.98-21.34-16.44-33.66C266.49,101.79,270.13,106.3,274.33,110.46z"/>
				<path d="M325.67,110.46c-24.07,23.81-59.33,29.36-88.63,16.77c0.89,1.03,1.8,2.05,2.77,3.03c22.07,22.31,58.04,22.5,80.35,0.43
					c9.51-9.41,14.98-21.34,16.44-33.66C333.51,101.79,329.87,106.3,325.67,110.46z"/>
			</g>
			<g>
				<g>
					<path d="M300,56.45c-6.21,8.07-9.9,18.16-9.9,29.12c0,10.96,3.7,21.06,9.9,29.13c6.21-8.07,9.9-18.16,9.9-29.13
						C309.9,74.61,306.21,64.51,300,56.45z"/>
				</g>
			</g>
			<g>
				<g>
					<path d="M237.17,99.62c0.73,6.59,3.56,12.99,8.51,18.14c4.95,5.14,11.25,8.21,17.8,9.19c-0.73-6.59-3.56-12.99-8.51-18.14
						C250.02,103.67,243.72,100.6,237.17,99.62z"/>
				</g>
			</g>
			<g>
				<g>
					<g>
						<path d="M362.83,99.62c-0.73,6.59-3.56,12.99-8.51,18.14c-4.95,5.14-11.25,8.21-17.8,9.19c0.73-6.59,3.56-12.99,8.51-18.14
							C349.98,103.67,356.28,100.6,362.83,99.62z"/>
					</g>
				</g>
			</g>
			<g>
				<g>
					<g>
						<path d="M271.8,81.62c-0.8,5.15,0.02,10.59,2.72,15.51c2.7,4.92,6.84,8.54,11.61,10.64c0.8-5.15-0.02-10.59-2.72-15.51
							C280.71,87.34,276.57,83.72,271.8,81.62z"/>
					</g>
				</g>
				<g>
					<g>
						<path d="M328.2,81.62c0.8,5.15-0.02,10.59-2.72,15.51c-2.7,4.92-6.84,8.54-11.61,10.64c-0.8-5.15,0.02-10.59,2.72-15.51
							C319.29,87.34,323.43,83.72,328.2,81.62z"/>
					</g>
				</g>
			</g>
		</g>
	</g>
</g>
</svg>
